<mxfile host="app.diagrams.net" modified="2024-02-11T09:32:36.329Z" agent="Mozilla/5.0 (Windows NT 10.0; Win64; x64) AppleWebKit/537.36 (KHTML, like Gecko) Chrome/121.0.0.0 Safari/537.36" etag="3knlsjx-CSWj-ywmfCyr" version="23.1.2" type="github">
  <diagram name="Page-1" id="cSsZvqao5F-GNC_vI65D">
    <mxGraphModel dx="3505" dy="506" grid="1" gridSize="10" guides="1" tooltips="1" connect="1" arrows="1" fold="1" page="1" pageScale="1" pageWidth="850" pageHeight="1100" math="0" shadow="0">
      <root>
        <mxCell id="0" />
        <mxCell id="1" parent="0" />
        <mxCell id="ZwRxSu54bFlmTfB_-tN8-20" style="edgeStyle=orthogonalEdgeStyle;rounded=0;orthogonalLoop=1;jettySize=auto;html=1;exitX=0.5;exitY=1;exitDx=0;exitDy=0;entryX=0.5;entryY=0;entryDx=0;entryDy=0;" edge="1" parent="1" source="ZwRxSu54bFlmTfB_-tN8-1" target="ZwRxSu54bFlmTfB_-tN8-2">
          <mxGeometry relative="1" as="geometry" />
        </mxCell>
        <mxCell id="ZwRxSu54bFlmTfB_-tN8-1" value="&lt;font style=&quot;font-size: 25px;&quot;&gt;start&lt;/font&gt;" style="ellipse;whiteSpace=wrap;html=1;" vertex="1" parent="1">
          <mxGeometry x="365" y="30" width="120" height="80" as="geometry" />
        </mxCell>
        <mxCell id="ZwRxSu54bFlmTfB_-tN8-22" style="edgeStyle=orthogonalEdgeStyle;rounded=0;orthogonalLoop=1;jettySize=auto;html=1;exitX=0.5;exitY=1;exitDx=0;exitDy=0;entryX=0.5;entryY=0;entryDx=0;entryDy=0;" edge="1" parent="1" source="ZwRxSu54bFlmTfB_-tN8-2" target="ZwRxSu54bFlmTfB_-tN8-4">
          <mxGeometry relative="1" as="geometry" />
        </mxCell>
        <mxCell id="ZwRxSu54bFlmTfB_-tN8-2" value="&lt;font style=&quot;font-size: 16px;&quot;&gt;Enter a First Number&lt;/font&gt;" style="shape=parallelogram;perimeter=parallelogramPerimeter;whiteSpace=wrap;html=1;fixedSize=1;" vertex="1" parent="1">
          <mxGeometry x="330" y="140" width="190" height="70" as="geometry" />
        </mxCell>
        <mxCell id="ZwRxSu54bFlmTfB_-tN8-23" style="edgeStyle=orthogonalEdgeStyle;rounded=0;orthogonalLoop=1;jettySize=auto;html=1;exitX=0.5;exitY=1;exitDx=0;exitDy=0;entryX=0.5;entryY=0;entryDx=0;entryDy=0;" edge="1" parent="1" source="ZwRxSu54bFlmTfB_-tN8-4" target="ZwRxSu54bFlmTfB_-tN8-6">
          <mxGeometry relative="1" as="geometry" />
        </mxCell>
        <mxCell id="ZwRxSu54bFlmTfB_-tN8-4" value="&lt;font style=&quot;font-size: 13px;&quot;&gt;Read Value Of First Number&lt;/font&gt;" style="rounded=1;whiteSpace=wrap;html=1;" vertex="1" parent="1">
          <mxGeometry x="338" y="240" width="170" height="60" as="geometry" />
        </mxCell>
        <mxCell id="ZwRxSu54bFlmTfB_-tN8-24" style="edgeStyle=orthogonalEdgeStyle;rounded=0;orthogonalLoop=1;jettySize=auto;html=1;exitX=0.5;exitY=1;exitDx=0;exitDy=0;entryX=0.5;entryY=0;entryDx=0;entryDy=0;" edge="1" parent="1" source="ZwRxSu54bFlmTfB_-tN8-6" target="ZwRxSu54bFlmTfB_-tN8-8">
          <mxGeometry relative="1" as="geometry" />
        </mxCell>
        <mxCell id="ZwRxSu54bFlmTfB_-tN8-6" value="&lt;font style=&quot;font-size: 15px;&quot;&gt;Enter a Second Number&lt;/font&gt;" style="shape=parallelogram;perimeter=parallelogramPerimeter;whiteSpace=wrap;html=1;fixedSize=1;" vertex="1" parent="1">
          <mxGeometry x="328" y="330" width="190" height="70" as="geometry" />
        </mxCell>
        <mxCell id="ZwRxSu54bFlmTfB_-tN8-25" style="edgeStyle=orthogonalEdgeStyle;rounded=0;orthogonalLoop=1;jettySize=auto;html=1;exitX=0.5;exitY=1;exitDx=0;exitDy=0;entryX=0.5;entryY=0;entryDx=0;entryDy=0;" edge="1" parent="1" source="ZwRxSu54bFlmTfB_-tN8-8" target="ZwRxSu54bFlmTfB_-tN8-10">
          <mxGeometry relative="1" as="geometry" />
        </mxCell>
        <mxCell id="ZwRxSu54bFlmTfB_-tN8-8" value="&lt;font style=&quot;font-size: 13px;&quot;&gt;Read Value Of Second Number&lt;/font&gt;" style="rounded=1;whiteSpace=wrap;html=1;" vertex="1" parent="1">
          <mxGeometry x="338" y="430" width="170" height="60" as="geometry" />
        </mxCell>
        <mxCell id="ZwRxSu54bFlmTfB_-tN8-26" style="edgeStyle=orthogonalEdgeStyle;rounded=0;orthogonalLoop=1;jettySize=auto;html=1;exitX=0.5;exitY=1;exitDx=0;exitDy=0;entryX=0.5;entryY=0;entryDx=0;entryDy=0;" edge="1" parent="1" source="ZwRxSu54bFlmTfB_-tN8-10" target="ZwRxSu54bFlmTfB_-tN8-12">
          <mxGeometry relative="1" as="geometry" />
        </mxCell>
        <mxCell id="ZwRxSu54bFlmTfB_-tN8-10" value="&lt;font style=&quot;font-size: 16px;&quot;&gt;Enter a Third Number&lt;/font&gt;" style="shape=parallelogram;perimeter=parallelogramPerimeter;whiteSpace=wrap;html=1;fixedSize=1;" vertex="1" parent="1">
          <mxGeometry x="328" y="520" width="190" height="70" as="geometry" />
        </mxCell>
        <mxCell id="ZwRxSu54bFlmTfB_-tN8-27" value="" style="edgeStyle=orthogonalEdgeStyle;rounded=0;orthogonalLoop=1;jettySize=auto;html=1;" edge="1" parent="1" source="ZwRxSu54bFlmTfB_-tN8-12" target="ZwRxSu54bFlmTfB_-tN8-14">
          <mxGeometry relative="1" as="geometry" />
        </mxCell>
        <mxCell id="ZwRxSu54bFlmTfB_-tN8-12" value="&lt;font style=&quot;font-size: 13px;&quot;&gt;Read Value Of Third Number&lt;/font&gt;" style="rounded=1;whiteSpace=wrap;html=1;" vertex="1" parent="1">
          <mxGeometry x="338" y="620" width="170" height="60" as="geometry" />
        </mxCell>
        <mxCell id="ZwRxSu54bFlmTfB_-tN8-28" style="edgeStyle=orthogonalEdgeStyle;rounded=0;orthogonalLoop=1;jettySize=auto;html=1;exitX=0.5;exitY=1;exitDx=0;exitDy=0;entryX=0.5;entryY=0;entryDx=0;entryDy=0;" edge="1" parent="1" source="ZwRxSu54bFlmTfB_-tN8-14" target="ZwRxSu54bFlmTfB_-tN8-16">
          <mxGeometry relative="1" as="geometry" />
        </mxCell>
        <mxCell id="ZwRxSu54bFlmTfB_-tN8-14" value="&lt;font style=&quot;font-size: 16px;&quot;&gt;Enter a Fourth Number&lt;/font&gt;" style="shape=parallelogram;perimeter=parallelogramPerimeter;whiteSpace=wrap;html=1;fixedSize=1;" vertex="1" parent="1">
          <mxGeometry x="328" y="710" width="190" height="70" as="geometry" />
        </mxCell>
        <mxCell id="ZwRxSu54bFlmTfB_-tN8-31" style="edgeStyle=orthogonalEdgeStyle;rounded=0;orthogonalLoop=1;jettySize=auto;html=1;exitX=0.5;exitY=1;exitDx=0;exitDy=0;entryX=0.5;entryY=0;entryDx=0;entryDy=0;" edge="1" parent="1" source="ZwRxSu54bFlmTfB_-tN8-16">
          <mxGeometry relative="1" as="geometry">
            <mxPoint x="423" y="900" as="targetPoint" />
          </mxGeometry>
        </mxCell>
        <mxCell id="ZwRxSu54bFlmTfB_-tN8-16" value="&lt;font style=&quot;font-size: 13px;&quot;&gt;Read Value Of Fourth Number&lt;/font&gt;" style="rounded=1;whiteSpace=wrap;html=1;" vertex="1" parent="1">
          <mxGeometry x="338" y="810" width="170" height="60" as="geometry" />
        </mxCell>
        <mxCell id="ZwRxSu54bFlmTfB_-tN8-35" style="edgeStyle=orthogonalEdgeStyle;rounded=0;orthogonalLoop=1;jettySize=auto;html=1;exitX=0;exitY=0.5;exitDx=0;exitDy=0;" edge="1" parent="1" source="ZwRxSu54bFlmTfB_-tN8-33">
          <mxGeometry relative="1" as="geometry">
            <mxPoint x="70" y="1180" as="targetPoint" />
          </mxGeometry>
        </mxCell>
        <mxCell id="ZwRxSu54bFlmTfB_-tN8-40" value="&lt;font style=&quot;font-size: 24px;&quot;&gt;No&lt;/font&gt;" style="edgeLabel;html=1;align=center;verticalAlign=middle;resizable=0;points=[];" vertex="1" connectable="0" parent="ZwRxSu54bFlmTfB_-tN8-35">
          <mxGeometry x="-0.4658" y="1" relative="1" as="geometry">
            <mxPoint as="offset" />
          </mxGeometry>
        </mxCell>
        <mxCell id="ZwRxSu54bFlmTfB_-tN8-38" style="edgeStyle=orthogonalEdgeStyle;rounded=0;orthogonalLoop=1;jettySize=auto;html=1;exitX=1;exitY=0.5;exitDx=0;exitDy=0;" edge="1" parent="1" source="ZwRxSu54bFlmTfB_-tN8-33">
          <mxGeometry relative="1" as="geometry">
            <mxPoint x="810" y="1180" as="targetPoint" />
          </mxGeometry>
        </mxCell>
        <mxCell id="ZwRxSu54bFlmTfB_-tN8-39" value="&lt;font style=&quot;font-size: 24px;&quot;&gt;Yes&lt;/font&gt;" style="edgeLabel;html=1;align=center;verticalAlign=middle;resizable=0;points=[];" vertex="1" connectable="0" parent="ZwRxSu54bFlmTfB_-tN8-38">
          <mxGeometry x="-0.4294" y="-2" relative="1" as="geometry">
            <mxPoint as="offset" />
          </mxGeometry>
        </mxCell>
        <mxCell id="ZwRxSu54bFlmTfB_-tN8-33" value="&lt;font style=&quot;font-size: 13px;&quot;&gt;All The Number Are Equal&lt;/font&gt;" style="rhombus;whiteSpace=wrap;html=1;" vertex="1" parent="1">
          <mxGeometry x="333" y="900" width="180" height="140" as="geometry" />
        </mxCell>
        <mxCell id="ZwRxSu54bFlmTfB_-tN8-42" value="&lt;font style=&quot;font-size: 16px;&quot;&gt;All The Values Are Same&lt;/font&gt;" style="rounded=1;whiteSpace=wrap;html=1;" vertex="1" parent="1">
          <mxGeometry x="710" y="1180" width="195" height="80" as="geometry" />
        </mxCell>
        <mxCell id="ZwRxSu54bFlmTfB_-tN8-45" style="edgeStyle=orthogonalEdgeStyle;rounded=0;orthogonalLoop=1;jettySize=auto;html=1;exitX=1;exitY=0.5;exitDx=0;exitDy=0;" edge="1" parent="1" source="ZwRxSu54bFlmTfB_-tN8-44">
          <mxGeometry relative="1" as="geometry">
            <mxPoint x="380" y="1490.800048828125" as="targetPoint" />
          </mxGeometry>
        </mxCell>
        <mxCell id="ZwRxSu54bFlmTfB_-tN8-48" value="&lt;span style=&quot;font-size: 25px;&quot;&gt;Yes&lt;/span&gt;" style="edgeLabel;html=1;align=center;verticalAlign=middle;resizable=0;points=[];" vertex="1" connectable="0" parent="ZwRxSu54bFlmTfB_-tN8-45">
          <mxGeometry x="-0.5252" y="-1" relative="1" as="geometry">
            <mxPoint as="offset" />
          </mxGeometry>
        </mxCell>
        <mxCell id="ZwRxSu54bFlmTfB_-tN8-50" style="edgeStyle=orthogonalEdgeStyle;rounded=0;orthogonalLoop=1;jettySize=auto;html=1;exitX=0;exitY=0.5;exitDx=0;exitDy=0;" edge="1" parent="1" source="ZwRxSu54bFlmTfB_-tN8-44">
          <mxGeometry relative="1" as="geometry">
            <mxPoint x="-220" y="1490" as="targetPoint" />
            <Array as="points">
              <mxPoint x="-219" y="1265" />
            </Array>
          </mxGeometry>
        </mxCell>
        <mxCell id="ZwRxSu54bFlmTfB_-tN8-55" value="&lt;font style=&quot;font-size: 22px;&quot;&gt;No&lt;/font&gt;" style="edgeLabel;html=1;align=center;verticalAlign=middle;resizable=0;points=[];" vertex="1" connectable="0" parent="ZwRxSu54bFlmTfB_-tN8-50">
          <mxGeometry x="-0.5707" y="2" relative="1" as="geometry">
            <mxPoint as="offset" />
          </mxGeometry>
        </mxCell>
        <mxCell id="ZwRxSu54bFlmTfB_-tN8-44" value="&lt;font style=&quot;font-size: 11px;&quot;&gt;FirstNumber EqualTo SecondNumber?&lt;/font&gt;" style="rhombus;whiteSpace=wrap;html=1;" vertex="1" parent="1">
          <mxGeometry x="-35" y="1180" width="210" height="170" as="geometry" />
        </mxCell>
        <mxCell id="ZwRxSu54bFlmTfB_-tN8-49" value="FirstNumber And SecondNumber Is Same" style="rounded=1;whiteSpace=wrap;html=1;" vertex="1" parent="1">
          <mxGeometry x="280" y="1490" width="200" height="60" as="geometry" />
        </mxCell>
        <mxCell id="ZwRxSu54bFlmTfB_-tN8-57" style="edgeStyle=orthogonalEdgeStyle;rounded=0;orthogonalLoop=1;jettySize=auto;html=1;exitX=1;exitY=0.5;exitDx=0;exitDy=0;" edge="1" parent="1" source="ZwRxSu54bFlmTfB_-tN8-56">
          <mxGeometry relative="1" as="geometry">
            <mxPoint x="80" y="1822.4000244140625" as="targetPoint" />
          </mxGeometry>
        </mxCell>
        <mxCell id="ZwRxSu54bFlmTfB_-tN8-59" value="&lt;font style=&quot;font-size: 27px;&quot;&gt;Yes&lt;/font&gt;" style="edgeLabel;html=1;align=center;verticalAlign=middle;resizable=0;points=[];" vertex="1" connectable="0" parent="ZwRxSu54bFlmTfB_-tN8-57">
          <mxGeometry x="-0.5902" relative="1" as="geometry">
            <mxPoint as="offset" />
          </mxGeometry>
        </mxCell>
        <mxCell id="ZwRxSu54bFlmTfB_-tN8-61" style="edgeStyle=orthogonalEdgeStyle;rounded=0;orthogonalLoop=1;jettySize=auto;html=1;exitX=0;exitY=0.5;exitDx=0;exitDy=0;" edge="1" parent="1" source="ZwRxSu54bFlmTfB_-tN8-56">
          <mxGeometry relative="1" as="geometry">
            <mxPoint x="-520" y="1840" as="targetPoint" />
          </mxGeometry>
        </mxCell>
        <mxCell id="ZwRxSu54bFlmTfB_-tN8-63" value="&lt;span style=&quot;font-size: 21px;&quot;&gt;No&lt;/span&gt;" style="edgeLabel;html=1;align=center;verticalAlign=middle;resizable=0;points=[];" vertex="1" connectable="0" parent="ZwRxSu54bFlmTfB_-tN8-61">
          <mxGeometry x="-0.4667" y="-3" relative="1" as="geometry">
            <mxPoint as="offset" />
          </mxGeometry>
        </mxCell>
        <mxCell id="ZwRxSu54bFlmTfB_-tN8-56" value="&lt;font style=&quot;font-size: 11px;&quot;&gt;FirstNumber Equal To ThirdNumber&lt;/font&gt;" style="rhombus;whiteSpace=wrap;html=1;" vertex="1" parent="1">
          <mxGeometry x="-320" y="1490" width="200" height="160" as="geometry" />
        </mxCell>
        <mxCell id="ZwRxSu54bFlmTfB_-tN8-60" value="FirstNumber and ThirdNumber Are Same" style="rounded=1;whiteSpace=wrap;html=1;" vertex="1" parent="1">
          <mxGeometry x="-30" y="1826" width="220" height="70" as="geometry" />
        </mxCell>
        <mxCell id="ZwRxSu54bFlmTfB_-tN8-65" style="edgeStyle=orthogonalEdgeStyle;rounded=0;orthogonalLoop=1;jettySize=auto;html=1;" edge="1" parent="1" source="ZwRxSu54bFlmTfB_-tN8-64">
          <mxGeometry relative="1" as="geometry">
            <mxPoint x="-220" y="2212.800048828125" as="targetPoint" />
          </mxGeometry>
        </mxCell>
        <mxCell id="ZwRxSu54bFlmTfB_-tN8-66" value="&lt;span style=&quot;font-size: 23px;&quot;&gt;Yes&lt;/span&gt;" style="edgeLabel;html=1;align=center;verticalAlign=middle;resizable=0;points=[];" vertex="1" connectable="0" parent="ZwRxSu54bFlmTfB_-tN8-65">
          <mxGeometry x="-0.5806" y="3" relative="1" as="geometry">
            <mxPoint as="offset" />
          </mxGeometry>
        </mxCell>
        <mxCell id="ZwRxSu54bFlmTfB_-tN8-69" style="edgeStyle=orthogonalEdgeStyle;rounded=0;orthogonalLoop=1;jettySize=auto;html=1;exitX=0;exitY=0.5;exitDx=0;exitDy=0;" edge="1" parent="1" source="ZwRxSu54bFlmTfB_-tN8-64">
          <mxGeometry relative="1" as="geometry">
            <mxPoint x="-800" y="2220" as="targetPoint" />
          </mxGeometry>
        </mxCell>
        <mxCell id="ZwRxSu54bFlmTfB_-tN8-71" value="&lt;span style=&quot;font-size: 23px;&quot;&gt;No&lt;/span&gt;" style="edgeLabel;html=1;align=center;verticalAlign=middle;resizable=0;points=[];" vertex="1" connectable="0" parent="ZwRxSu54bFlmTfB_-tN8-69">
          <mxGeometry x="-0.6449" relative="1" as="geometry">
            <mxPoint as="offset" />
          </mxGeometry>
        </mxCell>
        <mxCell id="ZwRxSu54bFlmTfB_-tN8-64" value="SecondNumber Equal To ThirdNumber" style="rhombus;whiteSpace=wrap;html=1;" vertex="1" parent="1">
          <mxGeometry x="-615" y="1840" width="190" height="140" as="geometry" />
        </mxCell>
        <mxCell id="ZwRxSu54bFlmTfB_-tN8-68" value="secondNumber andThirdNumber are same" style="rounded=1;whiteSpace=wrap;html=1;" vertex="1" parent="1">
          <mxGeometry x="-330" y="2215" width="220" height="60" as="geometry" />
        </mxCell>
        <mxCell id="ZwRxSu54bFlmTfB_-tN8-72" style="edgeStyle=orthogonalEdgeStyle;rounded=0;orthogonalLoop=1;jettySize=auto;html=1;exitX=1;exitY=0.5;exitDx=0;exitDy=0;" edge="1" parent="1" source="ZwRxSu54bFlmTfB_-tN8-70">
          <mxGeometry relative="1" as="geometry">
            <mxPoint x="-480" y="2580" as="targetPoint" />
          </mxGeometry>
        </mxCell>
        <mxCell id="ZwRxSu54bFlmTfB_-tN8-73" value="&lt;span style=&quot;font-size: 22px;&quot;&gt;Yes&lt;/span&gt;" style="edgeLabel;html=1;align=center;verticalAlign=middle;resizable=0;points=[];" vertex="1" connectable="0" parent="ZwRxSu54bFlmTfB_-tN8-72">
          <mxGeometry x="-0.5378" y="-3" relative="1" as="geometry">
            <mxPoint as="offset" />
          </mxGeometry>
        </mxCell>
        <mxCell id="ZwRxSu54bFlmTfB_-tN8-75" style="edgeStyle=orthogonalEdgeStyle;rounded=0;orthogonalLoop=1;jettySize=auto;html=1;exitX=0;exitY=0.5;exitDx=0;exitDy=0;" edge="1" parent="1" source="ZwRxSu54bFlmTfB_-tN8-70">
          <mxGeometry relative="1" as="geometry">
            <mxPoint x="-1171.5999755859375" y="2610" as="targetPoint" />
          </mxGeometry>
        </mxCell>
        <mxCell id="ZwRxSu54bFlmTfB_-tN8-77" value="&lt;span style=&quot;font-size: 21px;&quot;&gt;No&lt;/span&gt;" style="edgeLabel;html=1;align=center;verticalAlign=middle;resizable=0;points=[];" vertex="1" connectable="0" parent="ZwRxSu54bFlmTfB_-tN8-75">
          <mxGeometry x="-0.4394" y="2" relative="1" as="geometry">
            <mxPoint as="offset" />
          </mxGeometry>
        </mxCell>
        <mxCell id="ZwRxSu54bFlmTfB_-tN8-70" value="ThirdNumber Equal To FourthNumber" style="rhombus;whiteSpace=wrap;html=1;" vertex="1" parent="1">
          <mxGeometry x="-895" y="2221" width="190" height="160" as="geometry" />
        </mxCell>
        <mxCell id="ZwRxSu54bFlmTfB_-tN8-74" value="ThirdNumber and FourthNumber are Same" style="rounded=1;whiteSpace=wrap;html=1;" vertex="1" parent="1">
          <mxGeometry x="-594" y="2580" width="230" height="70" as="geometry" />
        </mxCell>
        <mxCell id="ZwRxSu54bFlmTfB_-tN8-78" style="edgeStyle=orthogonalEdgeStyle;rounded=0;orthogonalLoop=1;jettySize=auto;html=1;exitX=1;exitY=0.5;exitDx=0;exitDy=0;" edge="1" parent="1" source="ZwRxSu54bFlmTfB_-tN8-76">
          <mxGeometry relative="1" as="geometry">
            <mxPoint x="-850" y="2850" as="targetPoint" />
          </mxGeometry>
        </mxCell>
        <mxCell id="ZwRxSu54bFlmTfB_-tN8-82" value="&lt;span style=&quot;font-size: 29px;&quot;&gt;Yes&lt;/span&gt;" style="edgeLabel;html=1;align=center;verticalAlign=middle;resizable=0;points=[];" vertex="1" connectable="0" parent="ZwRxSu54bFlmTfB_-tN8-78">
          <mxGeometry x="-0.4823" y="-1" relative="1" as="geometry">
            <mxPoint as="offset" />
          </mxGeometry>
        </mxCell>
        <mxCell id="ZwRxSu54bFlmTfB_-tN8-83" style="edgeStyle=orthogonalEdgeStyle;rounded=0;orthogonalLoop=1;jettySize=auto;html=1;exitX=0;exitY=0.5;exitDx=0;exitDy=0;" edge="1" parent="1" source="ZwRxSu54bFlmTfB_-tN8-76">
          <mxGeometry relative="1" as="geometry">
            <mxPoint x="-1510" y="2870" as="targetPoint" />
          </mxGeometry>
        </mxCell>
        <mxCell id="ZwRxSu54bFlmTfB_-tN8-84" value="&lt;span style=&quot;font-size: 21px;&quot;&gt;No&lt;/span&gt;" style="edgeLabel;html=1;align=center;verticalAlign=middle;resizable=0;points=[];" vertex="1" connectable="0" parent="ZwRxSu54bFlmTfB_-tN8-83">
          <mxGeometry x="-0.4087" y="1" relative="1" as="geometry">
            <mxPoint as="offset" />
          </mxGeometry>
        </mxCell>
        <mxCell id="ZwRxSu54bFlmTfB_-tN8-76" value="SecondNumber Equal To FourthNumber&amp;nbsp;" style="rhombus;whiteSpace=wrap;html=1;" vertex="1" parent="1">
          <mxGeometry x="-1262" y="2610" width="180" height="160" as="geometry" />
        </mxCell>
        <mxCell id="ZwRxSu54bFlmTfB_-tN8-79" value="SecondNumber and FourthNumber are same&lt;br&gt;" style="rounded=1;whiteSpace=wrap;html=1;" vertex="1" parent="1">
          <mxGeometry x="-970" y="2850" width="230" height="60" as="geometry" />
        </mxCell>
        <mxCell id="ZwRxSu54bFlmTfB_-tN8-87" style="edgeStyle=orthogonalEdgeStyle;rounded=0;orthogonalLoop=1;jettySize=auto;html=1;" edge="1" parent="1" source="ZwRxSu54bFlmTfB_-tN8-86">
          <mxGeometry relative="1" as="geometry">
            <mxPoint x="-1180" y="3110" as="targetPoint" />
          </mxGeometry>
        </mxCell>
        <mxCell id="ZwRxSu54bFlmTfB_-tN8-89" value="&lt;span style=&quot;font-size: 23px;&quot;&gt;Yes&lt;/span&gt;" style="edgeLabel;html=1;align=center;verticalAlign=middle;resizable=0;points=[];" vertex="1" connectable="0" parent="ZwRxSu54bFlmTfB_-tN8-87">
          <mxGeometry x="-0.4845" y="-1" relative="1" as="geometry">
            <mxPoint as="offset" />
          </mxGeometry>
        </mxCell>
        <mxCell id="ZwRxSu54bFlmTfB_-tN8-90" style="edgeStyle=orthogonalEdgeStyle;rounded=0;orthogonalLoop=1;jettySize=auto;html=1;exitX=0;exitY=0.5;exitDx=0;exitDy=0;" edge="1" parent="1" source="ZwRxSu54bFlmTfB_-tN8-86">
          <mxGeometry relative="1" as="geometry">
            <mxPoint x="-1790" y="3120" as="targetPoint" />
          </mxGeometry>
        </mxCell>
        <mxCell id="ZwRxSu54bFlmTfB_-tN8-91" value="&lt;font style=&quot;font-size: 22px;&quot;&gt;No&lt;/font&gt;" style="edgeLabel;html=1;align=center;verticalAlign=middle;resizable=0;points=[];" vertex="1" connectable="0" parent="ZwRxSu54bFlmTfB_-tN8-90">
          <mxGeometry x="-0.5728" y="1" relative="1" as="geometry">
            <mxPoint as="offset" />
          </mxGeometry>
        </mxCell>
        <mxCell id="ZwRxSu54bFlmTfB_-tN8-86" value="&lt;font style=&quot;font-size: 15px;&quot;&gt;Determine The Maximum Number&lt;/font&gt;" style="rounded=1;whiteSpace=wrap;html=1;" vertex="1" parent="1">
          <mxGeometry x="-1620" y="2870" width="240" height="60" as="geometry" />
        </mxCell>
        <mxCell id="ZwRxSu54bFlmTfB_-tN8-88" value="&lt;font style=&quot;font-size: 15px;&quot;&gt;FirstNumber Is Max&lt;/font&gt;" style="rhombus;whiteSpace=wrap;html=1;" vertex="1" parent="1">
          <mxGeometry x="-1270" y="3110" width="180" height="170" as="geometry" />
        </mxCell>
        <mxCell id="ZwRxSu54bFlmTfB_-tN8-93" style="edgeStyle=orthogonalEdgeStyle;rounded=0;orthogonalLoop=1;jettySize=auto;html=1;" edge="1" parent="1" source="ZwRxSu54bFlmTfB_-tN8-92">
          <mxGeometry relative="1" as="geometry">
            <mxPoint x="-1480" y="3380" as="targetPoint" />
          </mxGeometry>
        </mxCell>
        <mxCell id="ZwRxSu54bFlmTfB_-tN8-96" value="&lt;span style=&quot;font-size: 22px;&quot;&gt;Yes&lt;/span&gt;" style="edgeLabel;html=1;align=center;verticalAlign=middle;resizable=0;points=[];" vertex="1" connectable="0" parent="ZwRxSu54bFlmTfB_-tN8-93">
          <mxGeometry x="-0.4841" y="-2" relative="1" as="geometry">
            <mxPoint as="offset" />
          </mxGeometry>
        </mxCell>
        <mxCell id="ZwRxSu54bFlmTfB_-tN8-98" style="edgeStyle=orthogonalEdgeStyle;rounded=0;orthogonalLoop=1;jettySize=auto;html=1;" edge="1" parent="1" source="ZwRxSu54bFlmTfB_-tN8-92">
          <mxGeometry relative="1" as="geometry">
            <mxPoint x="-2070" y="3390" as="targetPoint" />
          </mxGeometry>
        </mxCell>
        <mxCell id="ZwRxSu54bFlmTfB_-tN8-100" value="&lt;font style=&quot;font-size: 21px;&quot;&gt;No&lt;/font&gt;" style="edgeLabel;html=1;align=center;verticalAlign=middle;resizable=0;points=[];" vertex="1" connectable="0" parent="ZwRxSu54bFlmTfB_-tN8-98">
          <mxGeometry x="-0.5916" y="-3" relative="1" as="geometry">
            <mxPoint as="offset" />
          </mxGeometry>
        </mxCell>
        <mxCell id="ZwRxSu54bFlmTfB_-tN8-92" value="SecondNumber Is Max?" style="rhombus;whiteSpace=wrap;html=1;" vertex="1" parent="1">
          <mxGeometry x="-1864" y="3120" width="150" height="130" as="geometry" />
        </mxCell>
        <mxCell id="ZwRxSu54bFlmTfB_-tN8-97" value="SecondNumber Is Max" style="rhombus;whiteSpace=wrap;html=1;" vertex="1" parent="1">
          <mxGeometry x="-1565" y="3381" width="170" height="150" as="geometry" />
        </mxCell>
        <mxCell id="ZwRxSu54bFlmTfB_-tN8-102" style="edgeStyle=orthogonalEdgeStyle;rounded=0;orthogonalLoop=1;jettySize=auto;html=1;exitX=1;exitY=0.5;exitDx=0;exitDy=0;" edge="1" parent="1" source="ZwRxSu54bFlmTfB_-tN8-101">
          <mxGeometry relative="1" as="geometry">
            <mxPoint x="-1760" y="3700" as="targetPoint" />
          </mxGeometry>
        </mxCell>
        <mxCell id="ZwRxSu54bFlmTfB_-tN8-103" value="&lt;span style=&quot;font-size: 23px;&quot;&gt;Yes&lt;/span&gt;" style="edgeLabel;html=1;align=center;verticalAlign=middle;resizable=0;points=[];" vertex="1" connectable="0" parent="ZwRxSu54bFlmTfB_-tN8-102">
          <mxGeometry x="-0.5514" y="-2" relative="1" as="geometry">
            <mxPoint as="offset" />
          </mxGeometry>
        </mxCell>
        <mxCell id="ZwRxSu54bFlmTfB_-tN8-105" style="edgeStyle=orthogonalEdgeStyle;rounded=0;orthogonalLoop=1;jettySize=auto;html=1;" edge="1" parent="1" source="ZwRxSu54bFlmTfB_-tN8-101">
          <mxGeometry relative="1" as="geometry">
            <mxPoint x="-2380" y="3710" as="targetPoint" />
          </mxGeometry>
        </mxCell>
        <mxCell id="ZwRxSu54bFlmTfB_-tN8-106" value="&lt;span style=&quot;font-size: 21px;&quot;&gt;No&lt;/span&gt;" style="edgeLabel;html=1;align=center;verticalAlign=middle;resizable=0;points=[];" vertex="1" connectable="0" parent="ZwRxSu54bFlmTfB_-tN8-105">
          <mxGeometry x="-0.5623" y="-1" relative="1" as="geometry">
            <mxPoint as="offset" />
          </mxGeometry>
        </mxCell>
        <mxCell id="ZwRxSu54bFlmTfB_-tN8-101" value="ThirdNumber Is Max" style="rhombus;whiteSpace=wrap;html=1;" vertex="1" parent="1">
          <mxGeometry x="-2155" y="3391" width="170" height="150" as="geometry" />
        </mxCell>
        <mxCell id="ZwRxSu54bFlmTfB_-tN8-104" value="ThirdNumber Is Max" style="rhombus;whiteSpace=wrap;html=1;" vertex="1" parent="1">
          <mxGeometry x="-1844" y="3700" width="170" height="150" as="geometry" />
        </mxCell>
        <mxCell id="ZwRxSu54bFlmTfB_-tN8-108" style="edgeStyle=orthogonalEdgeStyle;rounded=0;orthogonalLoop=1;jettySize=auto;html=1;exitX=1;exitY=0.5;exitDx=0;exitDy=0;" edge="1" parent="1" source="ZwRxSu54bFlmTfB_-tN8-107">
          <mxGeometry relative="1" as="geometry">
            <mxPoint x="-2090" y="4010.941233915441" as="targetPoint" />
          </mxGeometry>
        </mxCell>
        <mxCell id="ZwRxSu54bFlmTfB_-tN8-109" value="&lt;span style=&quot;font-size: 25px;&quot;&gt;Yes&lt;/span&gt;" style="edgeLabel;html=1;align=center;verticalAlign=middle;resizable=0;points=[];" vertex="1" connectable="0" parent="ZwRxSu54bFlmTfB_-tN8-108">
          <mxGeometry x="-0.5304" y="-1" relative="1" as="geometry">
            <mxPoint as="offset" />
          </mxGeometry>
        </mxCell>
        <mxCell id="ZwRxSu54bFlmTfB_-tN8-107" value="FourthNumber Is Max" style="rhombus;whiteSpace=wrap;html=1;" vertex="1" parent="1">
          <mxGeometry x="-2465" y="3711" width="170" height="150" as="geometry" />
        </mxCell>
        <mxCell id="ZwRxSu54bFlmTfB_-tN8-112" style="edgeStyle=orthogonalEdgeStyle;rounded=0;orthogonalLoop=1;jettySize=auto;html=1;entryX=0.5;entryY=0;entryDx=0;entryDy=0;" edge="1" parent="1" source="ZwRxSu54bFlmTfB_-tN8-110" target="ZwRxSu54bFlmTfB_-tN8-111">
          <mxGeometry relative="1" as="geometry" />
        </mxCell>
        <mxCell id="ZwRxSu54bFlmTfB_-tN8-110" value="FourthNumber Is Max" style="rhombus;whiteSpace=wrap;html=1;" vertex="1" parent="1">
          <mxGeometry x="-2174" y="4010" width="170" height="150" as="geometry" />
        </mxCell>
        <mxCell id="ZwRxSu54bFlmTfB_-tN8-111" value="&lt;font style=&quot;font-size: 27px;&quot;&gt;End&lt;/font&gt;" style="ellipse;whiteSpace=wrap;html=1;" vertex="1" parent="1">
          <mxGeometry x="-1395" y="4170" width="120" height="80" as="geometry" />
        </mxCell>
      </root>
    </mxGraphModel>
  </diagram>
</mxfile>
